<?xml version="1.0" standalone="no"?>
<!DOCTYPE svg PUBLIC "-//W3C//DTD SVG 20010904//EN"
 "http://www.w3.org/TR/2001/REC-SVG-20010904/DTD/svg10.dtd">
<svg version="1.0" xmlns="http://www.w3.org/2000/svg"
 width="273.000000pt" height="273.000000pt" viewBox="0 0 273.000000 273.000000"
 preserveAspectRatio="xMidYMid meet">

<g transform="translate(0.000000,273.000000) scale(0.100000,-0.100000)"
fill="#000000" stroke="none">
<path d="M682 2047 l-682 -682 680 -680 680 -680 683 683 682 682 -680 680
-680 680 -683 -683z m1288 -68 l614 -610 -612 -612 -612 -612 -612 612 -612
612 609 610 c336 336 610 611 611 611 0 0 277 -275 614 -611z"/>
<path d="M902 2107 l-452 -452 0 -285 0 -285 455 -455 455 -455 460 460 460
460 0 270 0 270 -463 463 -462 462 -453 -453z m834 -209 l284 -200 0 -279 c0
-222 -3 -279 -12 -273 -7 4 -156 109 -331 232 -187 132 -324 222 -332 218 -8
-3 -66 -41 -128 -86 -63 -44 -117 -80 -121 -80 -10 0 -386 271 -386 278 0 8
-12 -1 364 264 l280 197 49 -35 c27 -20 177 -126 333 -236z m-882 -397 c77
-55 224 -159 326 -231 102 -71 190 -128 197 -126 7 3 64 42 128 87 66 46 121
79 129 76 11 -4 360 -252 384 -272 5 -4 -637 -455 -648 -455 -6 0 -104 66
-218 146 -114 81 -262 185 -329 233 l-123 86 0 278 c0 152 3 277 6 277 4 0 70
-45 148 -99z"/>
</g>
</svg>
